<?xml version="1.0" encoding="UTF-8"?>
<svg id="Layer_1" data-name="Layer 1" xmlns="http://www.w3.org/2000/svg" viewBox="0 0 512 512">
  <defs>
    <style>
      .cls-1 {
        fill: #fff;
      }

      .cls-2 {
        fill: #2dd378;
      }
    </style>
  </defs>
  <g>
    <path class="cls-1" d="M250.44,348.49c-5.85,3.57-15.14,4-20.99,3.85,3.67,3.71,9.24,6.37,17.53,6.37h6.94c8.29,0,13.86-2.66,17.53-6.37-5.86.15-15.14-.27-20.99-3.85Z"/>
    <path class="cls-1" d="M293.76,229.13c-3.04-9.56-12.67-27.78-12.67-27.78,0,0,11.15-15.94,3.55-31.42,0,0-2.2,4.25-5.57,5.77-3.38,1.52-13.17,12.75-14.52,21.25h0s0,0,0,0c0,0,1.01,5.31,6.59,7.89,0,0-10.97-2.3-13.06-11.61-1.52-.66-3.06-1.14-4.33-1.14h-6.59c-1.28,0-2.82.48-4.33,1.14-2.09,9.31-13.06,11.61-13.06,11.61,5.57-2.58,6.59-7.89,6.59-7.89-1.35-8.5-11.15-19.73-14.52-21.25-3.38-1.52-5.57-5.77-5.57-5.77-7.6,15.48,3.55,31.42,3.55,31.42,0,0-9.63,18.21-12.67,27.78-3.04,9.56,3.04,13.66,3.04,13.66,0,25.42,9.19,50.32,13.51,60.62,1.68,4,2.58,5.57,2.63,9.85.02,1.32,0,2.69-.09,3.98,2.28-2.18,4.22-2.66,4.22-2.66,5.47-20.04,2.77-55.09,2.77-55.09,5.61,29.14,1.78,60.41,1.78,60.41-2.44,1.04-4.38,2.14-5.91,3.23-3.05,2.15-4.76,5.48-4.72,8.96.05,4.91,1,11.42,3.86,16.97,2.21.17,4.97.25,7.9,0,1.71-.15,2.69-2.04,1.83-3.54-.83-1.45-1.87-2.99-3.12-3.91,0,0-6.42,1.06-2.96-2.73,3.23-3.54,9.69,3.68,11.02,8.92,2.77-.85,5.41-2.16,7.55-4.14,2.14,1.98,4.78,3.29,7.55,4.14,1.33-5.24,7.79-12.46,11.02-8.92,3.46,3.79-2.96,2.73-2.96,2.73-1.24.92-2.29,2.46-3.12,3.91-.85,1.49.12,3.39,1.83,3.54,2.92.25,5.69.17,7.9,0,2.86-5.56,3.81-12.07,3.86-16.97.04-3.48-1.68-6.81-4.72-8.96-1.54-1.08-3.47-2.19-5.91-3.23,0,0-3.82-31.27,1.78-60.41,0,0-2.7,35.05,2.77,55.09,0,0,1.94.48,4.22,2.66-.35-5.18.34-8.87.34-8.87,0,0,15.71-32.33,15.71-65.57,0,0,6.08-4.1,3.04-13.66Z"/>
  </g>
  <g>
    <path class="cls-2" d="M199.82,351.21c-1.36,0-2.46,1.1-2.46,2.46s1.1,2.46,2.46,2.46,2.46-1.1,2.46-2.46-1.1-2.46-2.46-2.46Z"/>
    <path class="cls-2" d="M196.22,347.94c-.63,0-1.14.51-1.14,1.14s.51,1.14,1.14,1.14,1.14-.51,1.14-1.14-.51-1.14-1.14-1.14Z"/>
    <path class="cls-2" d="M216.62,345.73l-18.19-41.43-18.19,41.43c-5.76,13.13,3.85,27.85,18.19,27.85s23.95-14.72,18.19-27.85ZM209.13,353.81c-.89,0-1.65-.56-1.95-1.35h-2.07c-.14,1.29-.66,2.48-1.43,3.44l1.47,1.47c.77-.34,1.7-.2,2.33.43.82.82.82,2.14,0,2.96-.82.82-2.14.82-2.96,0-.63-.63-.77-1.56-.43-2.33l-1.47-1.47c-.97.77-2.15,1.28-3.44,1.43v2.07c.79.3,1.35,1.06,1.35,1.95,0,1.16-.94,2.09-2.09,2.09s-2.09-.94-2.09-2.09c0-.89.56-1.65,1.35-1.95v-2.07c-1.29-.14-2.48-.66-3.44-1.43l-1.47,1.47c.34.77.2,1.7-.43,2.33-.82.82-2.14.82-2.96,0-.82-.82-.82-2.14,0-2.96.63-.63,1.56-.77,2.33-.43l1.47-1.47c-.77-.97-1.28-2.15-1.43-3.44h-2.07c-.3.79-1.06,1.35-1.95,1.35-1.16,0-2.09-.94-2.09-2.09s.94-2.09,2.09-2.09c.89,0,1.65.56,1.95,1.35h2.07c.14-1.29.66-2.48,1.43-3.44l-1.47-1.47c-.77.34-1.7.2-2.33-.43-.82-.82-.82-2.14,0-2.96.82-.82,2.14-.82,2.96,0,.63.63.77,1.56.43,2.33l1.47,1.47c.97-.77,2.15-1.28,3.44-1.43v-2.07c-.79-.3-1.35-1.06-1.35-1.95,0-1.16.94-2.09,2.09-2.09s2.09.94,2.09,2.09c0,.89-.56,1.65-1.35,1.95v2.07c1.29.14,2.48.66,3.44,1.43l1.47-1.47c-.34-.77-.2-1.7.43-2.33.82-.82,2.14-.82,2.96,0,.82.82.82,2.14,0,2.96-.63.63-1.56.77-2.33.43l-1.47,1.47c.77.97,1.28,2.15,1.43,3.44h2.07c.3-.79,1.06-1.35,1.95-1.35,1.16,0,2.09.94,2.09,2.09s-.94,2.09-2.09,2.09Z"/>
  </g>
  <path class="cls-2" d="M332.34,157.06l-1.57-1.57c-1.63-1.18-3.36-2.07-5.36-2.69-4.44-1.37-8.92-2.22-13.54-2.71-1.13-.12-2.19-.06-3.27-.02-.54-.4-1.07-.99-1.94-.92-.15-.86.49-1.75-.38-2.42-1.33-1.02-2.63-1.94-4.01-2.86l-.67-2.46-.37-1.35c-.15-.54-.24-1.1-.3-1.62-.26.22-.59.33-.91.25.35.76.58,1.62.81,2.48l.48,1.8c.24.9.56,1.67,1.43,2.16,1.03.58,2.09,1.27,3.01,1.94l-.37,1.31c-.65-.18-1.25-.24-2.03-.13.52-.6.31-1.05.09-1.59-.32-.77-.77-1.3-1.68-1.31-.92-.01-1.76.34-2.51,1.04-.88-.21-1.57-.2-1.63-1.36-.02-.37-.13-.7-.33-.9.27,1.89-.62,1.33.16,2.35-.34.15-.66.46-.85.72-.9-.54-.69.09-2.32-.06.28.19.58.3.98.33.7.06,1.54,1.04,1.12,1.73-.54.9-1.08,1.74-.84,2.79.17.75.59,1.06,1.28,1.3.51.18.93.4,1.57-.08-.09.76-.06,1.36.16,1.99-.5.09-.86.2-1.38.4l-2.13-3.37c-.14-.21-.42-.58-.63-.65l-2.48-.77-1.65-.42c-.48-.12-.94-.34-1.43-.55.1.27,0,.67-.2.92.35.06.78.13,1.18.24l1.02.27,1.16.33,1.99.52c.99,1.44,1.94,2.8,3.03,4.2.14.18.55.3.74.28l1.5-.15c.1.86.41,1.5,1.02,2.01-.15,1.11-.15,2.14-.04,3.25.29,2.97.81,5.82,1.44,8.74.82,3.78,1.69,7.1,4.05,10.23l1.5,1.5c.63.28,2.55,1.84,3.31.73,1.63-2.38,1.61-7.66,1.22-10.48l-.49-.67c-.12-.16.19-.65.31-.71l1.59.81,2.4,4.98c.25.52.42,1.03.57,1.56.15-.15.34-.45.48-.41l.48.15.06-.06-.47-.55-2.86-5.83c-.03-.07-.07-.19-.04-.22l.2-.21-2.41-1.21c-.2-.1-.45-.64-.32-.83.5-.68,1.34.97,2.57.81.26-.04.72-.21.92-.11.81.39,1.5.4,2.26-.04l1.22.12c.66.06.89-.36,1.24-.73.65-.68.9-.54.5-2.36.7-.77.17-1.67.14-2.52-.02-.76.19-1.68-.54-2.26-.22-.17-.44-.75-.28-.93.31-.34.88.14,1.02.44.34.75.71,1.49,1.08,2.14.37-.12.53-.06.8.07l3.64,1.81,1.01.41c.52.21.91.54,1.34.86,0-.28-.07-.51.01-.59l.37-.36c-.59-.16-1.16-.36-1.74-.63l-1.09-.51-3.73-1.82-.76-1.54c.02-.2.52-.46.67-.34.36.28.74.51,1.21.55,2.8.25,7.33.28,9.77-1.18,1.38-.82-.23-2.68-.56-3.44Z"/>
</svg>